<svg xmlns:xlink="http://www.w3.org/1999/xlink" xmlns="http://www.w3.org/2000/svg" width="40" height="40" viewBox="0 0 40 40">
        <path d="M20,15c2.206,0,4-1.794,4-4s-1.794-4-4-4s-4,1.794-4,4S17.794,15,20,15z M20,8c1.654,0,3,1.346,3,3
	s-1.346,3-3,3s-3-1.346-3-3S18.346,8,20,8z M27,23.967V33h-1v-9.033c0-3.309-2.691-6-6-6s-6,2.691-6,6V33h-1v-9.033
	c0-3.86,3.14-7,7-7S27,20.107,27,23.967z" fill="#FF3333"></path>
        <path d="M8.239,22H9v1H8.239C5.35,23,3,25.35,3,28.239V33H2v-4.761C2,24.799,4.799,22,8.239,22z M12,16.5
	c0,1.93-1.57,3.5-3.5,3.5S5,18.43,5,16.5S6.57,13,8.5,13S12,14.57,12,16.5z M11,16.5c0-1.378-1.122-2.5-2.5-2.5S6,15.122,6,16.5
	S7.122,19,8.5,19S11,17.878,11,16.5z M31.761,22H31v1h0.761C34.649,23,37,25.35,37,28.239V33h1v-4.761
	C38,24.799,35.201,22,31.761,22z M31.5,20c-1.93,0-3.5-1.57-3.5-3.5s1.57-3.5,3.5-3.5s3.5,1.57,3.5,3.5S33.43,20,31.5,20z M31.5,19
	c1.379,0,2.5-1.122,2.5-2.5S32.879,14,31.5,14c-1.378,0-2.5,1.122-2.5,2.5S30.122,19,31.5,19z" fill="#333333"></path>
    </svg>