<svg xmlns:xlink="http://www.w3.org/1999/xlink" xmlns="http://www.w3.org/2000/svg" width="40" height="40" viewBox="0 0 40 40">
        <path d="M20,13c-3.86,0-7,3.141-7,7c0,3.859,3.14,7,7,7s7-3.14,7-7C27,16.141,23.86,13,20,13z M20,26
	c-3.309,0-6-2.691-6-6c0-3.309,2.691-6,6-6s6,2.692,6,6C26,23.309,23.309,26,20,26z" fill="#FF3333"></path>
        <path d="M10.284,7.309L9.675,6.515C12.675,4.216,16.245,3,20,3c6.805,0,12.938,4.044,15.625,10.303l0.3,0.697H28v-1
	h6.388C31.714,7.508,26.148,4,20,4C16.467,4,13.107,5.144,10.284,7.309z M6.144,28c-3.074-5.324-2.819-11.898,0.601-16.96
	l3.193,5.532l0.866-0.5L6.841,9.208L6.387,9.816C2.311,15.273,1.875,22.607,5.277,28.5c1.877,3.252,4.715,5.735,8.207,7.184
	l0.383-0.924C10.581,33.397,7.91,31.06,6.144,28z M36.841,17.801l-0.992,0.13c0.464,3.528-0.226,7.01-1.992,10.069
	c-3.074,5.325-8.894,8.383-14.988,7.96l3.194-5.532l-0.866-0.5l-3.962,6.863l0.753,0.089c0.676,0.081,1.349,0.12,2.018,0.12
	c6.027,0,11.655-3.195,14.716-8.5C36.6,25.248,37.333,21.548,36.841,17.801z" fill="#333333"></path>
    </svg>