<svg xmlns:xlink="http://www.w3.org/1999/xlink" xmlns="http://www.w3.org/2000/svg" width="40" height="40" viewBox="0 0 40 40">
        <path fill="#FF3333" d="M30.601,29.208L30.601,29.208c-0.144,0-0.28-0.062-0.376-0.17l-8.098-9.208
	c-0.129-0.147-0.16-0.357-0.08-0.536C22.129,19.115,22.307,19,22.503,19h3.706c-0.084-2.965-0.926-4.865-3.094-7.092
	c-2.161-2.267-4.476-3.851-8.757-4.223c-0.224-0.02-0.407-0.186-0.448-0.406c-0.041-0.221,0.07-0.441,0.271-0.54
	C16.495,5.602,18.99,5,21.398,5c3.594,0,6.787,1.334,9.238,3.856c2.741,2.875,4.535,6.799,4.668,10.144H38.7
	c0.196,0,0.374,0.115,0.456,0.294c0.08,0.179,0.049,0.389-0.08,0.536l-8.1,9.208C30.881,29.146,30.744,29.208,30.601,29.208z
	 M23.608,20l6.992,7.951L37.594,20h-2.781c-0.135,0-0.262-0.054-0.355-0.148c-0.095-0.095-0.146-0.224-0.145-0.357
	c0.037-3.202-1.689-7.105-4.396-9.944C27.662,7.229,24.715,6,21.398,6c-1.697,0-3.443,0.32-5.13,0.935
	c3.468,0.647,5.58,2.195,7.568,4.28c2.461,2.527,3.378,4.773,3.38,8.285c0,0.133-0.053,0.26-0.146,0.354S26.849,20,26.716,20H23.608z"></path>
        <path fill="#333333" d="M18.601,35C18.601,35,18.601,35,18.601,35c-3.594,0-6.789-1.334-9.24-3.857
	C6.62,28.265,4.827,24.342,4.694,21H1.3c-0.196,0-0.375-0.115-0.456-0.294s-0.05-0.389,0.08-0.536l8.098-9.21
	c0.189-0.217,0.562-0.217,0.751,0l8.027,9.128c0.131,0.091,0.216,0.241,0.216,0.412c0,0.279-0.241,0.482-0.51,0.5
	c-0.003,0-0.006,0-0.01,0h-3.705c0.082,2.963,0.923,4.863,3.091,7.092c2.162,2.266,4.476,3.85,8.755,4.223
	c0.224,0.02,0.406,0.186,0.448,0.406c0.041,0.221-0.069,0.441-0.271,0.54C23.504,34.398,21.009,35,18.601,35z M2.405,20h2.782
	c0.134,0,0.262,0.054,0.355,0.148c0.094,0.095,0.146,0.224,0.145,0.357c-0.038,3.198,1.688,7.102,4.395,9.943
	C12.337,32.771,15.284,34,18.601,34h0c1.697,0,3.442-0.32,5.129-0.935c-3.466-0.648-5.579-2.195-7.567-4.28
	c-2.461-2.529-3.378-4.776-3.378-8.285c0-0.276,0.224-0.5,0.5-0.5h3.106l-6.993-7.953L2.405,20z"></path>
    </svg>