<svg xmlns:xlink="http://www.w3.org/1999/xlink" xmlns="http://www.w3.org/2000/svg" width="40" height="40" viewBox="0 0 40 40">
        <path d="M24.781,24.46L20,19.678V34h-1V19.678l-4.782,4.782l-0.637-0.637l5.918-5.918l5.918,5.918L24.781,24.46z" fill="#FF3333"></path>
        <path d="M33.812,32H26v-1h7.812C36.673,31,39,28.771,39,26.031s-2.327-4.969-5.188-4.969
	c-0.181,0-0.395-0.093-0.482-0.25c-0.089-0.158-0.133-0.346-0.038-0.5c0.554-0.91,0.834-1.877,0.834-2.875
	c0-3.17-2.691-5.75-5.999-5.75c-0.902,0-1.797,0.209-2.661,0.623c-0.237,0.113-0.524,0.023-0.652-0.207
	C23.053,8.955,19.652,7,15.937,7c-5.548,0-10.062,4.332-10.062,9.656c0,0.761,0.104,1.549,0.311,2.344
	c0.035,0.133,0.013,0.275-0.061,0.392c-0.073,0.117-0.192,0.198-0.327,0.224C3.018,20.157,1,22.526,1,25.25C1,28.421,3.692,31,7,31
	h6v1H7c-3.86,0-7-3.028-7-6.75c0-3.032,2.116-5.689,5.1-6.498c-0.149-0.708-0.225-1.412-0.225-2.096C4.875,10.78,9.837,6,15.937,6
	c3.92,0,7.525,1.989,9.517,5.222c0.87-0.355,1.767-0.534,2.672-0.534c3.859,0,6.999,3.028,6.999,6.75
	c0,0.924-0.201,1.823-0.599,2.681C37.642,20.485,40,22.998,40,26.031C40,29.322,37.224,32,33.812,32z" fill="#333333"></path>
    </svg>