<svg xmlns:xlink="http://www.w3.org/1999/xlink" xmlns="http://www.w3.org/2000/svg" width="40" height="40" viewBox="0 0 40 40">
        <path d="M35.5,38h-11c-1.379,0-2.5-1.121-2.5-2.5v-19c0-1.378,1.121-2.5,2.5-2.5h11c1.379,0,2.5,1.122,2.5,2.5v19
	C38,36.879,36.879,38,35.5,38z M24.5,15c-0.827,0-1.5,0.673-1.5,1.5v19c0,0.827,0.673,1.5,1.5,1.5h11c0.827,0,1.5-0.673,1.5-1.5v-19
	c0-0.827-0.673-1.5-1.5-1.5H24.5z" fill="#FF3333"></path>
        <path d="M31.5,35h-3c-0.276,0-0.5-0.224-0.5-0.5s0.224-0.5,0.5-0.5h3c0.276,0,0.5,0.224,0.5,0.5S31.776,35,31.5,35z" fill="#333333"></path>
        <path d="M33,4.5V12h-1V5H3v18h17v1H3v2h17v1h-6.497c-0.144,0.893-0.688,2.883-2.741,5H20v1H9.5
	c-0.209,0-0.396-0.13-0.469-0.326c-0.073-0.196-0.016-0.417,0.144-0.554c2.457-2.105,3.129-4.188,3.312-5.12H2.5
	C2.224,27,2,26.776,2,26.5v-22C2,4.224,2.224,4,2.5,4h30C32.776,4,33,4.224,33,4.5z" fill="#333333"></path>
    </svg>