<svg xmlns:xlink="http://www.w3.org/1999/xlink" xmlns="http://www.w3.org/2000/svg" width="40" height="40" viewBox="0 0 40 40">
        <path d="M13.35,29.4c-0.111,0-0.222-0.037-0.312-0.109c-0.154-0.123-0.222-0.326-0.172-0.518l1.825-6.968
	l-4.535-4.284c-0.139-0.131-0.191-0.33-0.134-0.512c0.057-0.183,0.212-0.316,0.401-0.346l6.218-0.963l2.908-6.019
	c0.167-0.345,0.733-0.345,0.9,0l2.908,6.019l6.218,0.963c0.189,0.029,0.345,0.163,0.401,0.346c0.057,0.182,0.005,0.381-0.134,0.512
	l-4.535,4.284l1.825,6.968c0.051,0.191-0.017,0.395-0.171,0.518c-0.155,0.124-0.369,0.144-0.543,0.053L20,26.009l-6.419,3.335
	C13.508,29.382,13.429,29.4,13.35,29.4z M20,24.945c0.079,0,0.158,0.019,0.23,0.057l5.65,2.936l-1.614-6.165
	c-0.047-0.177,0.007-0.365,0.14-0.49l4.008-3.786l-5.468-0.847c-0.163-0.025-0.303-0.128-0.374-0.276L20,11.049l-2.572,5.323
	c-0.071,0.148-0.211,0.251-0.374,0.276l-5.469,0.847l4.008,3.786c0.133,0.125,0.187,0.313,0.141,0.49l-1.615,6.165l5.65-2.936
	C19.842,24.964,19.921,24.945,20,24.945z" fill="#FF3333"></path>
        <path d="M20,38c-9.925,0-18-8.075-18-18c0-9.925,8.075-18,18-18c9.925,0,18,8.075,18,18C38,29.925,29.925,38,20,38z
	 M20,3C10.626,3,3,10.626,3,20s7.626,17,17,17s17-7.626,17-17S29.374,3,20,3z" fill="#333333"></path>
    </svg>