<svg xmlns:xlink="http://www.w3.org/1999/xlink" xmlns="http://www.w3.org/2000/svg" width="35" height="33" viewBox="0 0 35 33">
        <path d="M26.5,9c0.828,0,1.5,0.671,1.5,1.5S27.328,12,26.5,12S25,11.329,25,10.5S25.672,9,26.5,9z M27.7,17.3 l-5.25,5.25l6.597,6.597l-0.707,0.707l-6.95-6.95L10.786,12.3l-9.933,9.932l-0.707-0.707l10.64-10.639l10.957,10.957l5.957-5.957 l7.153,7.153l-0.707,0.707L27.7,17.3z" fill="#FF3333"></path>
        <path d="M35,30H0V3h35V30z M1,29h33V4H1V29z" fill="#333333"></path>
    </svg>