<svg xmlns:xlink="http://www.w3.org/1999/xlink" xmlns="http://www.w3.org/2000/svg" width="40" height="40" viewBox="0 0 40 40">
        <path d="M16.9,25.699c-0.128,0-0.256-0.049-0.354-0.146l-6.2-6.199c-0.195-0.195-0.195-0.512,0-0.707
	s0.512-0.195,0.707,0l5.847,5.846l12.047-12.046c0.195-0.195,0.512-0.195,0.707,0s0.195,0.512,0,0.707l-12.4,12.399
	C17.156,25.65,17.028,25.699,16.9,25.699z" fill="#FF3333"></path>
        <path d="M20,38.1c-0.048,0-0.097-0.007-0.144-0.021C19.209,37.885,4,33.194,4,22.1V3.5C4,3.224,4.224,3,4.5,3h31
	C35.776,3,36,3.224,36,3.5v18.6c0,11.095-15.209,15.785-15.856,15.979C20.097,38.093,20.048,38.1,20,38.1z M5,4v18.1
	c0,9.812,13.451,14.472,15,14.976c1.549-0.504,15-5.172,15-14.976V4H5z" fill="#333333"></path>
    </svg>