<svg xmlns:xlink="http://www.w3.org/1999/xlink" xmlns="http://www.w3.org/2000/svg" width="40" height="40"><defs><symbol id="svg-icon-security" viewBox="0 0 40 40" fill="#333333">
        <path fill="#555555" d="M20,6c0.674,0,1.408,0.401,1.869,0.776c2.536,2.063,7.384,3.975,11.131,4.996V16c0,8.543-4.732,15.065-13,17.943C11.732,31.065,7,24.543,7,16v-4.228c3.706-1.012,8.534-2.918,11.125-4.991C18.354,6.598,19.166,6,20,6 M20,5c-1,0-1.94,0.552-2.5,1C15,8,10,10,6,11v5c0,9,5,16,14,19c9-3,14-10,14-19v-5c-4-1-9.085-3.036-11.5-5C21.96,5.561,21,5,20,5L20,5z"></path>
        <path fill="#32BE5B" d="M27.318,16.453L19,24.771l-5.38-5.381l0.802-0.802L19,23.167l7.516-7.516L27.318,16.453z"></path>
    </symbol></defs><use xlink:href="#svg-icon-security" fill="#494949"></use></svg>