<svg xmlns:xlink="http://www.w3.org/1999/xlink" xmlns="http://www.w3.org/2000/svg" width="40" height="40" viewBox="0 0 40 40">
        <path d="M20,26.002c-3.309,0-6-2.692-6-6.002s2.691-6.002,6-6.002S26,16.69,26,20S23.309,26.002,20,26.002z
	 M20,14.998c-2.757,0-5,2.244-5,5.002c0,2.758,2.243,5.002,5,5.002s5-2.244,5-5.002C25,17.242,22.757,14.998,20,14.998z" fill="#FF3333"></path>
        <path d="M20,38c-0.851,0-1.73-0.074-2.766-0.232l-0.35-0.054l-0.883-4.639c-0.853-0.261-1.665-0.596-2.42-0.997
	L9.68,34.731l-0.285-0.209c-1.499-1.098-2.813-2.41-3.905-3.903l-0.208-0.284l2.648-3.9c-0.411-0.773-0.749-1.591-1.007-2.438
	l-4.636-0.884l-0.053-0.349C2.074,21.721,2,20.843,2,20c0-0.834,0.074-1.711,0.232-2.758l0.053-0.35l4.636-0.884
	c0.26-0.852,0.598-1.669,1.006-2.437l-2.65-3.899l0.208-0.285c1.093-1.493,2.405-2.806,3.9-3.902L9.67,5.277l3.898,2.65
	c0.765-0.407,1.581-0.743,2.433-1.003l0.884-4.637l0.349-0.054c2.063-0.316,3.506-0.314,5.522,0l0.348,0.054l0.884,4.633
	c0.855,0.261,1.678,0.6,2.449,1.012l3.898-2.651l0.284,0.208c1.488,1.088,2.801,2.402,3.902,3.905l0.209,0.285l-2.652,3.901
	c0.409,0.77,0.744,1.584,1.001,2.431l4.634,0.883l0.054,0.349C37.926,18.281,38,19.156,38,20c0,0.849-0.074,1.727-0.234,2.762
	l-0.054,0.349l-4.634,0.883c-0.258,0.851-0.595,1.667-1.003,2.434l2.649,3.9l-0.208,0.284c-1.094,1.496-2.409,2.811-3.909,3.907
	l-0.284,0.209l-3.897-2.653c-0.771,0.41-1.588,0.746-2.436,1.004l-0.884,4.635l-0.348,0.055C21.756,37.924,20.854,38,20,38z
	 M17.734,36.83c1.669,0.23,2.898,0.228,4.522,0.001l0.866-4.546l0.299-0.083c0.979-0.273,1.917-0.66,2.787-1.148l0.271-0.152
	l3.819,2.6c1.207-0.921,2.281-1.994,3.2-3.198l-2.598-3.823l0.152-0.27c0.487-0.864,0.874-1.802,1.148-2.785l0.083-0.299
	l4.544-0.865C36.945,21.427,37,20.701,37,20c0-0.696-0.055-1.421-0.17-2.256l-4.543-0.866l-0.083-0.299
	c-0.273-0.979-0.658-1.915-1.146-2.783l-0.152-0.27l2.599-3.823c-0.924-1.209-1.996-2.283-3.193-3.197l-3.821,2.6L26.22,8.954
	c-0.869-0.491-1.812-0.881-2.8-1.158l-0.299-0.083l-0.866-4.543c-1.638-0.229-2.86-0.231-4.52,0.001l-0.866,4.545l-0.298,0.084
	c-0.987,0.278-1.925,0.665-2.786,1.149l-0.27,0.152l-3.82-2.598C8.492,7.423,7.42,8.495,6.502,9.696l2.598,3.822l-0.152,0.27
	c-0.487,0.866-0.875,1.804-1.152,2.79l-0.084,0.297L3.17,17.741C3.055,18.585,3,19.31,3,20c0,0.696,0.055,1.423,0.172,2.263
	l4.543,0.866l0.083,0.299c0.274,0.979,0.662,1.917,1.153,2.79l0.151,0.27l-2.596,3.823c0.917,1.201,1.991,2.273,3.197,3.194
	l3.824-2.601l0.27,0.152c0.849,0.479,1.782,0.863,2.773,1.144l0.297,0.084L17.734,36.83z" fill="#333333"></path>
    </svg>