<svg xmlns:xlink="http://www.w3.org/1999/xlink" xmlns="http://www.w3.org/2000/svg" width="40" height="40" viewBox="0 0 40 40">
        <path d="M28,10v5h-5l2.279-2.279C23.752,11.609,21.925,11,20,11c-4.962,0-9,4.038-9,9h-1c0-5.514,4.486-10,10-10
	c2.191,0,4.271,0.711,5.993,2.007L28,10z" fill="#FF3333"></path>
        <path d="M20,2C10.075,2,2,10.075,2,20c0,9.925,8.075,18,18,18c9.925,0,18-8.075,18-18C38,10.075,29.925,2,20,2z
	 M20,37c-9.374,0-17-7.626-17-17S10.626,3,20,3s17,7.626,17,17S29.374,37,20,37z M29,20h1c0,5.514-4.486,10-10,10
	c-2.193,0-4.272-0.711-5.993-2.007L12,30v-5h5l-2.279,2.279C16.248,28.391,18.075,29,20,29C24.963,29,29,24.963,29,20z" fill="#333333"></path>
    </svg>