<svg xmlns:xlink="http://www.w3.org/1999/xlink" xmlns="http://www.w3.org/2000/svg" width="35" height="33" viewBox="0 0 35 33">
        <path d="M20.83,18.205h-6.672L11.867,24H10.6l6.604-16.486h0.729L24.4,24h-1.291L20.83,18.205z M14.574,17.172 h5.873l-2.234-5.918c-0.188-0.465-0.412-1.107-0.674-1.932c-0.201,0.719-0.422,1.369-0.662,1.953L14.574,17.172z" fill="#FF3333"></path>
        <path d="M17.5,33C8.402,33,1,25.598,1,16.5S8.402,0,17.5,0S34,7.402,34,16.5S26.598,33,17.5,33z M17.5,1 C8.953,1,2,7.953,2,16.5S8.953,32,17.5,32S33,25.047,33,16.5S26.047,1,17.5,1z" fill="#333333"></path>
    </svg>