<svg xmlns:xlink="http://www.w3.org/1999/xlink" xmlns="http://www.w3.org/2000/svg" width="35" height="33" viewBox="0 0 35 33">
        <path d="M22.87,9.071c-0.081-0.065-0.189-0.087-0.29-0.06l-7.334,2.1c-0.149,0.045-0.249,0.184-0.246,0.339v8.565 c-0.42-0.32-1.007-0.515-1.667-0.515c-1.308,0-2.333,0.769-2.333,1.75s1.025,1.75,2.333,1.75s2.334-0.769,2.334-1.75v-9.534 l6.666-1.91v8.808c-0.42-0.32-1.007-0.516-1.666-0.516c-1.308,0-2.334,0.769-2.334,1.75s1.026,1.75,2.334,1.75S23,20.83,23,19.85 V9.35C23.001,9.242,22.953,9.14,22.87,9.071z" fill="#FF3333"></path>
        <path d="M17.5,33C8.402,33,1,25.598,1,16.5S8.402,0,17.5,0S34,7.402,34,16.5S26.598,33,17.5,33z M17.5,1 C8.953,1,2,7.953,2,16.5S8.953,32,17.5,32S33,25.047,33,16.5S26.047,1,17.5,1z" fill="#333333"></path>
    </svg>